<svg xmlns="http://www.w3.org/2000/svg" xmlns:xlink="http://www.w3.org/1999/xlink" zoomAndPan="magnify" preserveAspectRatio="xMidYMid meet" version="1.0" viewBox="38.35 143.98 302.92 98.17"><defs><g/><clipPath id="4665062cee"><path d="M 84.417969 161 L 112 161 L 112 196 L 84.417969 196 Z M 84.417969 161 " clip-rule="nonzero"/></clipPath><clipPath id="a0876362d8"><path d="M 94 144.039062 L 128 144.039062 L 128 180 L 94 180 Z M 94 144.039062 " clip-rule="nonzero"/></clipPath><clipPath id="215982963f"><path d="M 136 171 L 163.917969 171 L 163.917969 207 L 136 207 Z M 136 171 " clip-rule="nonzero"/></clipPath><clipPath id="cf9eb8945d"><path d="M 120 188 L 154 188 L 154 223.539062 L 120 223.539062 Z M 120 188 " clip-rule="nonzero"/></clipPath></defs><g clip-path="url(#4665062cee)"><path fill="#d80032" d="M 111.613281 195.441406 L 91.171875 161.515625 C 86.882812 167.855469 84.378906 175.496094 84.378906 183.707031 C 84.378906 187.789062 85 191.730469 86.148438 195.441406 Z M 111.613281 195.441406 " fill-opacity="1" fill-rule="nonzero"/></g><path fill="#d80032" d="M 120.199219 166.871094 L 160.042969 166.871094 C 154.925781 155.988281 145.011719 147.796875 133.039062 145.027344 Z M 120.199219 166.871094 " fill-opacity="1" fill-rule="nonzero"/><g clip-path="url(#a0876362d8)"><path fill="#d80032" d="M 107.410156 179.164062 L 127.964844 144.1875 C 126.691406 144.0625 125.398438 143.996094 124.089844 143.996094 C 112.25 143.996094 101.609375 149.210938 94.328125 157.457031 Z M 107.410156 179.164062 " fill-opacity="1" fill-rule="nonzero"/></g><path fill="#d80032" d="M 115.691406 222.171875 L 128.265625 200.238281 L 87.996094 200.238281 C 93.277344 211.726562 103.878906 220.273438 116.628906 222.707031 Z M 115.691406 222.171875 " fill-opacity="1" fill-rule="nonzero"/><g clip-path="url(#215982963f)"><path fill="#d80032" d="M 136.503906 171.671875 L 156.578125 206.503906 C 161.121094 200.046875 163.800781 192.1875 163.800781 183.707031 C 163.800781 179.511719 163.144531 175.46875 161.929688 171.671875 Z M 136.503906 171.671875 " fill-opacity="1" fill-rule="nonzero"/></g><g clip-path="url(#cf9eb8945d)"><path fill="#d80032" d="M 140.597656 188.382812 L 120.601562 223.257812 C 121.75 223.359375 122.914062 223.421875 124.089844 223.421875 C 135.660156 223.421875 146.089844 218.445312 153.355469 210.519531 Z M 140.597656 188.382812 " fill-opacity="1" fill-rule="nonzero"/></g><g fill="#f4f6fc" fill-opacity="1"><g transform="translate(31.679014, 217.886849)"><g><path d="M 25.578125 -52.21875 L 25.578125 -37.515625 L 55.078125 -37.515625 L 55.078125 -22.90625 L 25.578125 -22.90625 L 25.578125 0 L 6.6875 0 L 6.6875 -66.828125 L 59.09375 -66.828125 L 59.09375 -52.21875 Z M 25.578125 -52.21875 "/></g></g></g><g fill="#f4f6fc" fill-opacity="1"><g transform="translate(83.251279, 217.886849)"><g/></g></g><g fill="#f4f6fc" fill-opacity="1"><g transform="translate(101.295639, 217.886849)"><g/></g></g><g fill="#f4f6fc" fill-opacity="1"><g transform="translate(119.34, 217.886849)"><g/></g></g><g fill="#f4f6fc" fill-opacity="1"><g transform="translate(137.384362, 217.886849)"><g/></g></g><g fill="#f4f6fc" fill-opacity="1"><g transform="translate(155.459553, 217.886849)"><g><path d="M 40 1.34375 C 33 1.34375 26.710938 -0.132812 21.140625 -3.09375 C 15.578125 -6.0625 11.203125 -10.1875 8.015625 -15.46875 C 4.835938 -20.75 3.25 -26.734375 3.25 -33.421875 C 3.25 -40.097656 4.835938 -46.078125 8.015625 -51.359375 C 11.203125 -56.640625 15.578125 -60.757812 21.140625 -63.71875 C 26.710938 -66.6875 33 -68.171875 40 -68.171875 C 46.113281 -68.171875 51.617188 -67.085938 56.515625 -64.921875 C 61.421875 -62.753906 65.492188 -59.632812 68.734375 -55.5625 L 56.703125 -44.671875 C 52.378906 -49.898438 47.128906 -52.515625 40.953125 -52.515625 C 37.328125 -52.515625 34.097656 -51.71875 31.265625 -50.125 C 28.429688 -48.53125 26.234375 -46.285156 24.671875 -43.390625 C 23.117188 -40.492188 22.34375 -37.171875 22.34375 -33.421875 C 22.34375 -29.660156 23.117188 -26.332031 24.671875 -23.4375 C 26.234375 -20.539062 28.429688 -18.296875 31.265625 -16.703125 C 34.097656 -15.117188 37.328125 -14.328125 40.953125 -14.328125 C 47.128906 -14.328125 52.378906 -16.9375 56.703125 -22.15625 L 68.734375 -11.265625 C 65.492188 -7.191406 61.421875 -4.070312 56.515625 -1.90625 C 51.617188 0.257812 46.113281 1.34375 40 1.34375 Z M 40 1.34375 "/></g></g></g><g fill="#f4f6fc" fill-opacity="1"><g transform="translate(216.180249, 217.886849)"><g><path d="M 37.515625 1.34375 C 27.585938 1.34375 19.867188 -1.359375 14.359375 -6.765625 C 8.859375 -12.179688 6.109375 -19.851562 6.109375 -29.78125 L 6.109375 -66.828125 L 25.015625 -66.828125 L 25.015625 -30.359375 C 25.015625 -19.671875 29.242188 -14.328125 37.703125 -14.328125 C 46.109375 -14.328125 50.3125 -19.671875 50.3125 -30.359375 L 50.3125 -66.828125 L 68.921875 -66.828125 L 68.921875 -29.78125 C 68.921875 -19.851562 66.164062 -12.179688 60.65625 -6.765625 C 55.15625 -1.359375 47.441406 1.34375 37.515625 1.34375 Z M 37.515625 1.34375 "/></g></g></g><g fill="#f4f6fc" fill-opacity="1"><g transform="translate(281.483611, 217.886849)"><g><path d="M 30.171875 1.34375 C 24.753906 1.34375 19.5 0.675781 14.40625 -0.65625 C 9.320312 -2 5.1875 -3.785156 2 -6.015625 L 8.203125 -19.953125 C 11.203125 -17.984375 14.671875 -16.390625 18.609375 -15.171875 C 22.554688 -13.960938 26.441406 -13.359375 30.265625 -13.359375 C 37.515625 -13.359375 41.140625 -15.175781 41.140625 -18.8125 C 41.140625 -20.71875 40.101562 -22.128906 38.03125 -23.046875 C 35.96875 -23.972656 32.644531 -24.945312 28.0625 -25.96875 C 23.039062 -27.050781 18.84375 -28.210938 15.46875 -29.453125 C 12.09375 -30.691406 9.195312 -32.679688 6.78125 -35.421875 C 4.363281 -38.160156 3.15625 -41.851562 3.15625 -46.5 C 3.15625 -50.570312 4.265625 -54.242188 6.484375 -57.515625 C 8.710938 -60.796875 12.039062 -63.390625 16.46875 -65.296875 C 20.894531 -67.210938 26.320312 -68.171875 32.75 -68.171875 C 37.132812 -68.171875 41.457031 -67.675781 45.71875 -66.6875 C 49.988281 -65.695312 53.75 -64.25 57 -62.34375 L 51.171875 -48.3125 C 44.804688 -51.75 38.632812 -53.46875 32.65625 -53.46875 C 28.894531 -53.46875 26.15625 -52.910156 24.4375 -51.796875 C 22.71875 -50.679688 21.859375 -49.234375 21.859375 -47.453125 C 21.859375 -45.671875 22.875 -44.332031 24.90625 -43.4375 C 26.945312 -42.550781 30.226562 -41.628906 34.75 -40.671875 C 39.84375 -39.585938 44.054688 -38.425781 47.390625 -37.1875 C 50.734375 -35.945312 53.628906 -33.972656 56.078125 -31.265625 C 58.535156 -28.554688 59.765625 -24.878906 59.765625 -20.234375 C 59.765625 -16.222656 58.648438 -12.59375 56.421875 -9.34375 C 54.191406 -6.101562 50.847656 -3.507812 46.390625 -1.5625 C 41.941406 0.375 36.535156 1.34375 30.171875 1.34375 Z M 30.171875 1.34375 "/></g></g></g><g fill="#d80032" fill-opacity="1"><g transform="translate(106.557067, 241.913602)"><g><path d="M 8.890625 0.21875 C 7.390625 0.21875 6.03125 -0.109375 4.8125 -0.765625 C 3.601562 -1.429688 2.65625 -2.34375 1.96875 -3.5 C 1.28125 -4.664062 0.9375 -5.984375 0.9375 -7.453125 C 0.9375 -8.910156 1.28125 -10.21875 1.96875 -11.375 C 2.664062 -12.539062 3.617188 -13.453125 4.828125 -14.109375 C 6.046875 -14.773438 7.410156 -15.109375 8.921875 -15.109375 C 10.140625 -15.109375 11.25 -14.894531 12.25 -14.46875 C 13.257812 -14.039062 14.113281 -13.425781 14.8125 -12.625 L 13.03125 -10.9375 C 11.945312 -12.101562 10.617188 -12.6875 9.046875 -12.6875 C 8.023438 -12.6875 7.109375 -12.460938 6.296875 -12.015625 C 5.492188 -11.566406 4.863281 -10.941406 4.40625 -10.140625 C 3.945312 -9.347656 3.71875 -8.453125 3.71875 -7.453125 C 3.71875 -6.441406 3.945312 -5.535156 4.40625 -4.734375 C 4.863281 -3.941406 5.492188 -3.320312 6.296875 -2.875 C 7.109375 -2.4375 8.023438 -2.21875 9.046875 -2.21875 C 10.617188 -2.21875 11.945312 -2.804688 13.03125 -3.984375 L 14.8125 -2.28125 C 14.113281 -1.46875 13.253906 -0.847656 12.234375 -0.421875 C 11.222656 0.00390625 10.109375 0.21875 8.890625 0.21875 Z M 8.890625 0.21875 "/></g></g></g><g fill="#d80032" fill-opacity="1"><g transform="translate(134.901377, 241.913602)"><g><path d="M 11.65625 -3.453125 L 4.21875 -3.453125 L 2.75 0 L -0.109375 0 L 6.59375 -14.890625 L 9.328125 -14.890625 L 16.046875 0 L 13.15625 0 Z M 10.75 -5.625 L 7.9375 -12.125 L 5.15625 -5.625 Z M 10.75 -5.625 "/></g></g></g><g fill="#d80032" fill-opacity="1"><g transform="translate(163.713596, 241.913602)"><g><path d="M 15.6875 0 L 15.65625 -9.875 L 10.765625 -1.703125 L 9.53125 -1.703125 L 4.640625 -9.75 L 4.640625 0 L 2 0 L 2 -14.890625 L 4.28125 -14.890625 L 10.1875 -5.015625 L 16 -14.890625 L 18.28125 -14.890625 L 18.296875 0 Z M 15.6875 0 "/></g></g></g><g fill="#d80032" fill-opacity="1"><g transform="translate(196.907093, 241.913602)"><g><path d="M 13.171875 -2.3125 L 13.171875 0 L 2 0 L 2 -14.890625 L 12.875 -14.890625 L 12.875 -12.578125 L 4.765625 -12.578125 L 4.765625 -8.703125 L 11.953125 -8.703125 L 11.953125 -6.421875 L 4.765625 -6.421875 L 4.765625 -2.3125 Z M 13.171875 -2.3125 "/></g></g></g><g fill="#d80032" fill-opacity="1"><g transform="translate(224.039107, 241.913602)"><g><path d="M 11.75 0 L 8.703125 -4.359375 C 8.578125 -4.347656 8.382812 -4.34375 8.125 -4.34375 L 4.765625 -4.34375 L 4.765625 0 L 2 0 L 2 -14.890625 L 8.125 -14.890625 C 9.414062 -14.890625 10.539062 -14.675781 11.5 -14.25 C 12.457031 -13.832031 13.191406 -13.222656 13.703125 -12.421875 C 14.210938 -11.628906 14.46875 -10.6875 14.46875 -9.59375 C 14.46875 -8.476562 14.191406 -7.515625 13.640625 -6.703125 C 13.097656 -5.890625 12.316406 -5.285156 11.296875 -4.890625 L 14.734375 0 Z M 11.6875 -9.59375 C 11.6875 -10.550781 11.375 -11.285156 10.75 -11.796875 C 10.125 -12.304688 9.207031 -12.5625 8 -12.5625 L 4.765625 -12.5625 L 4.765625 -6.625 L 8 -6.625 C 9.207031 -6.625 10.125 -6.878906 10.75 -7.390625 C 11.375 -7.910156 11.6875 -8.644531 11.6875 -9.59375 Z M 11.6875 -9.59375 "/></g></g></g><g fill="#d80032" fill-opacity="1"><g transform="translate(252.468482, 241.913602)"><g><path d="M 11.65625 -3.453125 L 4.21875 -3.453125 L 2.75 0 L -0.109375 0 L 6.59375 -14.890625 L 9.328125 -14.890625 L 16.046875 0 L 13.15625 0 Z M 10.75 -5.625 L 7.9375 -12.125 L 5.15625 -5.625 Z M 10.75 -5.625 "/></g></g></g></svg>